<?xml version="1.0" encoding="UTF-8"?>
<svg version="1.1" xmlns="http://www.w3.org/2000/svg" width="444" height="444">
<path d="M0 0 C0.94633301 0.21430664 1.89266602 0.42861328 2.86767578 0.64941406 C22.49533597 5.26176315 41.27269853 12.41639894 59 22 C59.5986084 22.31936523 60.1972168 22.63873047 60.81396484 22.96777344 C78.6549243 32.54713842 94.33280543 45.11184986 109 59 C109.93070312 59.8765625 110.86140625 60.753125 111.8203125 61.65625 C118.96772937 68.57967375 125.05566252 76.04019114 131 84 C131.64799561 84.85682373 131.64799561 84.85682373 132.30908203 85.73095703 C138.60858198 94.09289273 144.02096748 102.7665603 148.93847656 112.00732422 C149.62546266 113.29692416 150.31967465 114.58271162 151.02246094 115.86376953 C161.27616623 134.58553486 167.87241322 155.11416298 172 176 C172.16226074 176.74878418 172.32452148 177.49756836 172.49169922 178.26904297 C178.31335667 205.67108596 177.18126015 237.78646122 171 265 C170.78569336 265.94633301 170.57138672 266.89266602 170.35058594 267.86767578 C165.73823685 287.49533597 158.58360106 306.27269853 149 324 C148.68063477 324.5986084 148.36126953 325.1972168 148.03222656 325.81396484 C138.45286158 343.6549243 125.88815014 359.33280543 112 374 C111.1234375 374.93070312 110.246875 375.86140625 109.34375 376.8203125 C102.42032625 383.96772937 94.95980886 390.05566252 87 396 C86.14317627 396.64799561 86.14317627 396.64799561 85.26904297 397.30908203 C76.90710727 403.60858198 68.2334397 409.02096748 58.99267578 413.93847656 C57.70307584 414.62546266 56.41728838 415.31967465 55.13623047 416.02246094 C36.41446514 426.27616623 15.88583702 432.87241322 -5 437 C-5.74878418 437.16226074 -6.49756836 437.32452148 -7.26904297 437.49169922 C-34.67108596 443.31335667 -66.78646122 442.18126015 -94 436 C-95.41949951 435.67854004 -95.41949951 435.67854004 -96.86767578 435.35058594 C-116.49533597 430.73823685 -135.27269853 423.58360106 -153 414 C-153.5986084 413.68063477 -154.1972168 413.36126953 -154.81396484 413.03222656 C-172.6549243 403.45286158 -188.33280543 390.88815014 -203 377 C-203.93070312 376.1234375 -204.86140625 375.246875 -205.8203125 374.34375 C-212.96772937 367.42032625 -219.05566252 359.95980886 -225 352 C-225.64799561 351.14317627 -225.64799561 351.14317627 -226.30908203 350.26904297 C-232.60858198 341.90710727 -238.02096748 333.2334397 -242.93847656 323.99267578 C-243.62546266 322.70307584 -244.31967465 321.41728838 -245.02246094 320.13623047 C-255.27616623 301.41446514 -261.87241322 280.88583702 -266 260 C-266.24339111 258.87682373 -266.24339111 258.87682373 -266.49169922 257.73095703 C-272.31335667 230.32891404 -271.18126015 198.21353878 -265 171 C-264.78569336 170.05366699 -264.57138672 169.10733398 -264.35058594 168.13232422 C-259.73823685 148.50466403 -252.58360106 129.72730147 -243 112 C-242.68063477 111.4013916 -242.36126953 110.8027832 -242.03222656 110.18603516 C-232.45286158 92.3450757 -219.88815014 76.66719457 -206 62 C-205.1234375 61.06929688 -204.246875 60.13859375 -203.34375 59.1796875 C-196.42032625 52.03227063 -188.95980886 45.94433748 -181 40 C-180.42878418 39.56800293 -179.85756836 39.13600586 -179.26904297 38.69091797 C-170.90710727 32.39141802 -162.2334397 26.97903252 -152.99267578 22.06152344 C-151.70307584 21.37453734 -150.41728838 20.68032535 -149.13623047 19.97753906 C-130.41446514 9.72383377 -109.88583702 3.12758678 -89 -1 C-87.87682373 -1.24339111 -87.87682373 -1.24339111 -86.73095703 -1.49169922 C-59.32891404 -7.31335667 -27.21353878 -6.18126015 0 0 Z " fill="#FDFDFD" transform="translate(269,4)"/>
<path d="M0 0 C7.753686 -0.40817399 15.50458047 -0.68682456 23.26660156 -0.87890625 C25.90176858 -0.95901429 28.53623211 -1.06794947 31.16894531 -1.20703125 C52.40535355 -2.30019988 52.40535355 -2.30019988 58.32400513 1.48712158 C62.15273432 5.13720362 64.68916237 9.3781852 67.03094482 14.08703613 C68.23592734 16.46573248 69.72553867 18.53103197 71.33984375 20.6484375 C72.20797298 21.8890579 73.07392379 23.13120602 73.9375 24.375 C79.66576559 32.55239623 85.50098272 40.64903971 91.35888672 48.73388672 C94.07648171 52.48644797 96.78796046 56.24342287 99.5 60 C102.84306278 64.62940306 106.18661936 69.25844828 109.53125 73.88671875 C110.40233398 75.09231445 110.40233398 75.09231445 111.29101562 76.32226562 C112.39372692 77.84841806 113.49658099 79.37446735 114.59960938 80.90039062 C115.10298828 81.59712891 115.60636719 82.29386719 116.125 83.01171875 C116.56070313 83.61459717 116.99640625 84.21747559 117.4453125 84.83862305 C118.8331532 86.76804417 120.21599107 88.70089284 121.59716797 90.63508606 C122.04720184 91.26527051 122.49723572 91.89545496 122.96090698 92.54473591 C123.30380768 93.02497306 123.64670837 93.50521021 124 94 C124.06956471 83.54257885 124.12284419 73.08521291 124.15543652 62.62760735 C124.17108061 57.77151175 124.19229598 52.91557468 124.22631836 48.05957031 C124.25895655 43.37169973 124.27686247 38.68398146 124.28463173 33.99600601 C124.29016722 32.20906299 124.30097674 30.42212813 124.31719017 28.63525009 C124.33902385 26.12888438 124.34196447 23.623145 124.34057617 21.11669922 C124.351362 20.38086105 124.36214783 19.64502289 124.3732605 18.8868866 C124.3451294 14.18157403 123.4790637 10.99649382 121 7 C118.61881834 4.77831634 118.61881834 4.77831634 116 3 C114.02 1.515 114.02 1.515 112 0 C131.47 0 150.94 0 171 0 C168 3 168 3 164.9375 5.375 C161.492113 8.45385647 160.21935164 10.47671203 159.81557083 15.12156105 C159.72461014 17.80671587 159.70693771 20.48443496 159.70947266 23.17114258 C159.70275543 24.19290085 159.69603821 25.21465912 159.68911743 26.26737976 C159.67012916 29.64314648 159.66621271 33.01871445 159.6640625 36.39453125 C159.6576349 38.74476706 159.65090657 41.09500207 159.64389038 43.44523621 C159.63191535 48.3721197 159.62820977 53.29893306 159.62939453 58.22583008 C159.62959767 64.53072546 159.60230129 70.83516984 159.56785011 77.13995838 C159.5455824 81.99478713 159.54155697 86.84950735 159.54261398 91.70438194 C159.54025762 94.02834311 159.53143217 96.35230725 159.51594925 98.67621803 C159.49629374 101.93135525 159.50212643 105.18552004 159.51416016 108.44067383 C159.50292114 109.39523468 159.49168213 110.34979553 159.48010254 111.33328247 C159.53608819 117.3107421 160.45654524 122.06697662 164 127 C166.93942994 129.40521237 166.93942994 129.40521237 170 131 C170.99 131.66 171.98 132.32 173 133 C165.61165081 133.30278215 158.22466086 133.53295004 150.83133888 133.67355824 C147.39686931 133.74109382 143.96667527 133.83243784 140.53466797 133.98071289 C116.53520857 134.99014863 116.53520857 134.99014863 111.14550781 130.38232422 C108.38885559 127.24399222 106.73790907 123.77844575 105 120 C103.8768297 118.32114128 102.7234353 116.66182424 101.53125 115.03125 C100.51788567 113.52280939 99.50744909 112.01239766 98.5 110.5 C94.02127789 103.86404982 89.37494106 97.45261373 84.43359375 91.15625 C80.11789946 85.55900926 76.08026532 79.77066095 72 74 C71.67 82.91 71.34 91.82 71 101 C68.36 99.02 65.72 97.04 63 95 C60.95205863 93.83149757 58.87099981 92.71746195 56.75 91.6875 C55.75484375 91.19636719 54.7596875 90.70523438 53.734375 90.19921875 C51.4496795 89.19721658 49.41177158 88.56045039 47 88 C47.04456 92.10835506 47.11480678 96.21544067 47.20751953 100.32299805 C47.23551371 101.71643218 47.25683406 103.11001875 47.27099609 104.50366211 C47.30277784 116.35158597 47.30277784 116.35158597 52 127 C54.22892661 129.0409144 54.22892661 129.0409144 56.75 130.0625 C57.54921875 130.44535156 58.3484375 130.82820312 59.171875 131.22265625 C59.77515625 131.47917969 60.3784375 131.73570312 61 132 C61 132.33 61 132.66 61 133 C56.05 133 51.1 133 46 133 C46 109.24 46 85.48 46 61 C45.34 61 44.68 61 44 61 C44 60.34 44 59.68 44 59 C42.02 59 40.04 59 38 59 C38 80.12 38 101.24 38 123 C34.93059382 119.93059382 32.70226061 117.33934756 30.28515625 113.82421875 C29.59873047 112.83099609 28.91230469 111.83777344 28.20507812 110.81445312 C27.49802734 109.78255859 26.79097656 108.75066406 26.0625 107.6875 C24.65791008 105.64949281 23.25297036 103.61172665 21.84765625 101.57421875 C21.18781738 100.60790527 20.52797852 99.6415918 19.84814453 98.64599609 C18.29201497 96.41807902 16.66720992 94.28537293 14.99609375 92.14453125 C12.81873626 88.71444753 12.51451623 86.98096695 13 83 C-9.65360909 85.98624474 -9.65360909 85.98624474 -27.25 99.75 C-35.02714796 110.81177448 -36.58952668 124.13558443 -34.46875 137.296875 C-32.02713185 147.75337011 -28.17686731 156.70639555 -18.8125 162.625 C-1.30113866 173.33673699 23.79224273 172.33330251 43.30078125 167.97265625 C52.45708094 165.56513923 60.04085777 162.64231062 67.29296875 156.453125 C69 155 69 155 71 154 C71 165.22 71 176.44 71 188 C39.41302666 198.52899111 -3.30361235 201.9364903 -34.48046875 188.5 C-42.01435445 184.68447993 -48.08048858 179.99498789 -54 174 C-54.57363281 173.44828125 -55.14726562 172.8965625 -55.73828125 172.328125 C-67.19495251 160.36818911 -69.60257831 143.09254021 -69.5 127.3125 C-69.49856995 126.60478455 -69.49713989 125.89706909 -69.4956665 125.16790771 C-69.44178527 114.41144762 -68.74169865 104.83463424 -64 95 C-63.55398437 94.071875 -63.10796875 93.14375 -62.6484375 92.1875 C-53.76651782 75.91225052 -39.45887886 67.27221673 -22.234375 61.8046875 C-13.9092573 59.44464884 -6.07398229 58.76889367 2.5703125 58.89453125 C3.57843994 58.90214478 4.58656738 58.9097583 5.62524414 58.91760254 C8.08367983 58.93727585 10.54174469 58.9648855 13 59 C12.93287703 52.55838462 12.84302221 46.11737031 12.73754883 39.67626953 C12.7043469 37.48623812 12.6763003 35.29612211 12.65356445 33.10595703 C12.61993191 29.9530847 12.56761052 26.80098427 12.51171875 23.6484375 C12.50532883 22.67321136 12.4989389 21.69798523 12.49235535 20.69320679 C12.37849698 15.3983728 11.99061828 11.56095197 9 7 C6.61881834 4.77831634 6.61881834 4.77831634 4 3 C2.66464102 2.00270658 1.3309559 1.00316209 0 0 Z " fill="#020202" transform="translate(191,70)"/>
<path d="M0 0 C4.85822367 3.70150375 7.22561722 7.23330803 8.109375 13.35546875 C8.36261728 19.91866453 8.01772186 24.9932776 4.20703125 30.44921875 C0.36521675 34.21514556 -2.97186456 35.4306266 -8.3125 35.4375 C-13.47923098 35.27901132 -16.59491893 34.78008107 -20.375 31 C-24.97895557 24.97721536 -25.34230881 18.34365057 -24.375 11 C-23.0825798 6.52735482 -21.13196315 3.73850063 -17.8125 0.5 C-11.90120819 -2.07947279 -6.13040959 -1.81641766 0 0 Z " fill="#F9F9F9" transform="translate(101.375,292)"/>
<path d="M0 0 C19.59541985 0 19.59541985 0 24.7421875 4.53515625 C29.76079376 11.30162193 29.6536776 16.64226499 29 25 C27.26598092 31.25709294 23.78505492 32.69425433 18 36 C12.06 36 6.12 36 0 36 C0 24.12 0 12.24 0 0 Z " fill="#F3F3F3" transform="translate(118,291)"/>
<path d="M0 0 C1.98 0 3.96 0 6 0 C11.30802645 11.63682723 15.04762478 23.85561636 19 36 C17.35 36 15.7 36 14 36 C11 29.375 11 29.375 11 26 C6.05 26.33 1.1 26.66 -4 27 C-5.32 29.97 -6.64 32.94 -8 36 C-9.32 36 -10.64 36 -12 36 C-9.91241244 27.74816978 -7.2459577 19.79880349 -4.3125 11.8125 C-3.68891602 10.09836914 -3.68891602 10.09836914 -3.05273438 8.34960938 C-2.03907179 5.56495009 -1.02143976 2.78181383 0 0 Z " fill="#121212" transform="translate(386,291)"/>
<path d="M0 0 C6 0 6 0 7.61157227 1.52539062 C8.00916748 2.22857422 8.4067627 2.93175781 8.81640625 3.65625 C9.27080078 4.43226563 9.72519531 5.20828125 10.19335938 6.0078125 C10.64517578 6.83023437 11.09699219 7.65265625 11.5625 8.5 C12.48017252 10.09392059 13.39813942 11.68767172 14.31640625 13.28125 C14.71287354 13.99345703 15.10934082 14.70566406 15.51782227 15.43945312 C17.58706028 19.01418023 19.81087854 22.49740567 22 26 C22.33 17.42 22.66 8.84 23 0 C24.65 0 26.3 0 28 0 C28 11.88 28 23.76 28 36 C26.35 36 24.7 36 23 36 C21.42333984 34.38500977 21.42333984 34.38500977 20.0859375 32.12890625 C19.58288086 31.30664551 19.07982422 30.48438477 18.56152344 29.63720703 C18.0462207 28.76692871 17.53091797 27.89665039 17 27 C15.9339196 25.31892325 14.86360802 23.64052223 13.7890625 21.96484375 C12.73298929 20.28993542 11.67854529 18.61399958 10.625 16.9375 C8.76875 13.988125 6.9125 11.03875 5 8 C4.67 17.24 4.34 26.48 4 36 C2.68 36 1.36 36 0 36 C0 24.12 0 12.24 0 0 Z " fill="#212121" transform="translate(171,291)"/>
<path d="M0 0 C5 0 5 0 6.66796875 1.625 C7.42013672 2.800625 7.42013672 2.800625 8.1875 4 C8.77015625 4.89460938 9.3528125 5.78921875 9.953125 6.7109375 C10.62859375 7.79632813 11.3040625 8.88171875 12 10 C12.89008787 11.40919358 13.78074735 12.81802622 14.671875 14.2265625 C17.14066067 18.13563201 19.56721081 22.06754624 22 26 C22.33 17.42 22.66 8.84 23 0 C24.32 0 25.64 0 27 0 C27 11.88 27 23.76 27 36 C22 35 22 35 20.19482422 32.94628906 C19.6535791 32.06166992 19.11233398 31.17705078 18.5546875 30.265625 C17.65169922 28.81542969 17.65169922 28.81542969 16.73046875 27.3359375 C16.11816406 26.31757813 15.50585938 25.29921875 14.875 24.25 C14.25496094 23.24710937 13.63492187 22.24421875 12.99609375 21.2109375 C10.29380545 16.82916249 7.64865086 12.41441811 5 8 C4.67 17.24 4.34 26.48 4 36 C2.68 36 1.36 36 0 36 C0 24.12 0 12.24 0 0 Z " fill="#090909" transform="translate(312,291)"/>
<path d="M0 0 C1.65 0 3.3 0 5 0 C6.89876771 2.26203677 8.35946032 4.31248925 9.875 6.8125 C10.30409668 7.48869385 10.73319336 8.1648877 11.17529297 8.86157227 C12.04692047 10.23858767 12.91106009 11.62037181 13.76757812 13.00683594 C14.89569603 14.83131188 16.04291438 16.64113177 17.203125 18.4453125 C18.81519818 20.95516627 20.40971398 23.47628523 22 26 C22.33 17.42 22.66 8.84 23 0 C24.32 0 25.64 0 27 0 C27 11.88 27 23.76 27 36 C22 35 22 35 20.19482422 32.94628906 C19.6535791 32.06166992 19.11233398 31.17705078 18.5546875 30.265625 C17.65169922 28.81542969 17.65169922 28.81542969 16.73046875 27.3359375 C16.11816406 26.31757813 15.50585938 25.29921875 14.875 24.25 C14.25496094 23.24710937 13.63492187 22.24421875 12.99609375 21.2109375 C10.29380545 16.82916249 7.64865086 12.41441811 5 8 C4.67 17.24 4.34 26.48 4 36 C2.68 36 1.36 36 0 36 C0 24.12 0 12.24 0 0 Z " fill="#090909" transform="translate(259,291)"/>
<path d="M0 0 C4.85822367 3.70150375 7.22561722 7.23330803 8.109375 13.35546875 C8.36261728 19.91866453 8.01772186 24.9932776 4.20703125 30.44921875 C0.36521675 34.21514556 -2.97186456 35.4306266 -8.3125 35.4375 C-13.47923098 35.27901132 -16.59491893 34.78008107 -20.375 31 C-24.97895557 24.97721536 -25.34230881 18.34365057 -24.375 11 C-23.0825798 6.52735482 -21.13196315 3.73850063 -17.8125 0.5 C-11.90120819 -2.07947279 -6.13040959 -1.81641766 0 0 Z M-18.375 8 C-20.69576756 12.64153511 -19.80500478 18.94887723 -19.375 24 C-18.1532819 27.29458577 -16.58992885 29.39253558 -13.375 31 C-6.68538772 31.92929558 -6.68538772 31.92929558 -0.57421875 29.765625 C3.99251133 24.32326821 4.21571871 18.77216811 3.625 12 C2.06178964 7.70117151 0.48237252 5.40486279 -3.375 3 C-9.91927088 1.7230691 -14.27116853 2.43997027 -18.375 8 Z " fill="#121212" transform="translate(101.375,292)"/>
<path d="M0 0 C19.59541985 0 19.59541985 0 24.7421875 4.53515625 C29.76079376 11.30162193 29.6536776 16.64226499 29 25 C27.26598092 31.25709294 23.78505492 32.69425433 18 36 C12.06 36 6.12 36 0 36 C0 24.12 0 12.24 0 0 Z M4 4 C4 13.57 4 23.14 4 33 C13.608622 33.60531347 13.608622 33.60531347 21 30 C22.84434349 27.53884453 22.84434349 27.53884453 24 25 C24.33 24.34 24.66 23.68 25 23 C25.75857535 16.19769315 25.21419512 11.46706393 21 6 C15.04057409 3.25721865 15.04057409 3.25721865 4 4 Z " fill="#101010" transform="translate(118,291)"/>
<path d="M0 0 C3.61210496 1.26740525 5.34331555 1.95527474 7.375 5.1875 C7.58125 5.785625 7.7875 6.38375 8 7 C6.25 7.6875 6.25 7.6875 4 8 C3.40703125 7.52046875 2.8140625 7.0409375 2.203125 6.546875 C-1.74336602 3.7759345 -6.3706731 4.35273849 -11 5 C-14.16620095 7.18618637 -14.7896387 8.36891611 -16 12 C-16.55031416 18.6461018 -16.45573382 24.19930395 -13 30 C-8.32858627 33.2220242 -3.3457223 31.63639551 2 31 C2.66 27.37 3.32 23.74 4 20 C0.7 20 -2.6 20 -6 20 C-6 19.01 -6 18.02 -6 17 C-1.38 17 3.24 17 8 17 C8 23.27 8 29.54 8 36 C6.68 36 5.36 36 4 36 C3.67 35.01 3.34 34.02 3 33 C2.17822266 33.73089844 2.17822266 33.73089844 1.33984375 34.4765625 C-2.76886623 37.15168252 -7.26561577 36.50021024 -12 36 C-15.99537277 34.55486517 -18.28389932 32.14853137 -20.2734375 28.35546875 C-22.21372516 22.06518135 -22.14594767 14.07070587 -19.8125 7.875 C-14.77015059 -0.12320941 -8.77342989 -0.69296484 0 0 Z " fill="#0D0D0D" transform="translate(229,291)"/>
<path d="M0 0 C2.77253019 2.06162501 3.54589269 3.51355294 4.4375 6.8125 C3.4475 7.1425 2.4575 7.4725 1.4375 7.8125 C0.756875 7.173125 0.07625 6.53375 -0.625 5.875 C-4.29600927 3.29748286 -6.68951292 3.29975122 -11.0625 3.18359375 C-14.79552698 4.12268335 -16.26033066 5.76861061 -18.5625 8.8125 C-19.27697097 12.44186548 -19.27697097 12.44186548 -19.0625 16.3125 C-19.0521875 17.6015625 -19.041875 18.890625 -19.03125 20.21875 C-18.54897427 23.91619724 -17.7762543 25.85536154 -15.5625 28.8125 C-12.34727863 31.14076375 -9.45419575 31.20961181 -5.5625 30.8125 C-1.88316733 29.10118248 0.2216352 27.19460943 2.4375 23.8125 C3.0975 24.1425 3.7575 24.4725 4.4375 24.8125 C4.23379204 28.37738931 3.42154463 29.83190518 1.125 32.625 C-2.79975145 35.62795752 -6.9418605 35.45121819 -11.71875 35.2265625 C-17.14800676 34.43603885 -19.54581047 32.04322943 -22.9375 27.9375 C-25.79253019 22.35995157 -25.37110656 15.86310771 -24.5625 9.8125 C-22.99859598 5.58226782 -20.68552323 2.86946304 -17.4375 -0.1875 C-11.65267686 -2.19961239 -5.76598311 -1.92199437 0 0 Z " fill="#141414" transform="translate(66.5625,292.1875)"/>
<path d="M0 0 C3.33710394 3.33710394 5.7552583 5.81657682 8.296875 9.57421875 C9.14572266 10.82235352 9.14572266 10.82235352 10.01171875 12.09570312 C10.58535156 12.95099609 11.15898437 13.80628906 11.75 14.6875 C12.63365234 15.9878418 12.63365234 15.9878418 13.53515625 17.31445312 C17.82615041 23.65230082 17.82615041 23.65230082 19 26 C12.57234807 25.27234129 6.40148684 24.1639067 0 23 C0 15.41 0 7.82 0 0 Z " fill="#F3F3F3" transform="translate(238,109)"/>
<path d="M0 0 C1.32 0 2.64 0 4 0 C4.07441989 4.18087152 4.12872818 8.3613873 4.16479492 12.54272461 C4.1798376 13.96369141 4.20027704 15.38461213 4.22631836 16.80541992 C4.26290347 18.85346886 4.27977097 20.9009015 4.29296875 22.94921875 C4.3086792 24.17987061 4.32438965 25.41052246 4.34057617 26.6784668 C3.97137159 30.27920391 3.16918163 32.13533543 1 35 C-2.93021674 36.96510837 -7.71604362 36.47530928 -12 36 C-15.1875 34 -15.1875 34 -17 32 C-16.67 30.68 -16.34 29.36 -16 28 C-13.50638429 29.20381448 -11.31856917 30.45428722 -9 32 C-5.39132451 31.84172822 -5.39132451 31.84172822 -2 31 C-0.57732138 28.15464275 -0.78028131 25.63781448 -0.68359375 22.4609375 C-0.64169922 21.15898437 -0.59980469 19.85703125 -0.55664062 18.515625 C-0.51682701 17.13541955 -0.47711478 15.75521117 -0.4375 14.375 C-0.39430593 12.98696585 -0.35069135 11.59894472 -0.30664062 10.2109375 C-0.20028 6.80739744 -0.09825286 3.40378222 0 0 Z " fill="#101010" transform="translate(363,291)"/>
<path d="M0 0 C1.98 0 3.96 0 6 0 C7.32 2.64 8.64 5.28 10 8 C8.68 8.33 7.36 8.66 6 9 C5.67 8.67 5.34 8.34 5 8 C4.67 17.24 4.34 26.48 4 36 C2.68 36 1.36 36 0 36 C0 24.12 0 12.24 0 0 Z " fill="#0E0E0E" transform="translate(171,291)"/>
<path d="M0 0 C1.32 0 2.64 0 4 0 C4 11.88 4 23.76 4 36 C2.68 36 1.36 36 0 36 C0 24.12 0 12.24 0 0 Z " fill="#020202" transform="translate(297,291)"/>
<path d="M0 0 C1.32 0 2.64 0 4 0 C4 11.88 4 23.76 4 36 C2.68 36 1.36 36 0 36 C0 24.12 0 12.24 0 0 Z " fill="#0D0D0D" transform="translate(156,291)"/>
<path d="M0 0 C0.66 0 1.32 0 2 0 C2.84124316 2.24732102 3.67314832 4.49738785 4.5 6.75 C4.73847656 7.38421875 4.97695313 8.0184375 5.22265625 8.671875 C6.44801758 12.03286607 7 14.36871587 7 18 C3.04 18 -0.92 18 -5 18 C-3.72520789 11.8221613 -2.1079151 5.94432058 0 0 Z " fill="#E7E7E7" transform="translate(388,296)"/>
<path d="M0 0 C0.99 0.33 1.98 0.66 3 1 C2.34 1 1.68 1 1 1 C1.04456 5.10835506 1.11480678 9.21544067 1.20751953 13.32299805 C1.23551371 14.71643218 1.25683406 16.11001875 1.27099609 17.50366211 C1.30277784 29.35158597 1.30277784 29.35158597 6 40 C8.22892661 42.0409144 8.22892661 42.0409144 10.75 43.0625 C11.94882813 43.63677734 11.94882813 43.63677734 13.171875 44.22265625 C14.07679688 44.60744141 14.07679688 44.60744141 15 45 C15 45.33 15 45.66 15 46 C10.05 46 5.1 46 0 46 C0 30.82 0 15.64 0 0 Z " fill="#191919" transform="translate(237,157)"/>
<path d="M0 0 C6.8359375 -0.1953125 6.8359375 -0.1953125 9 0 C9.66 0.66 10.32 1.32 11 2 C10.625 4.4375 10.625 4.4375 10 7 C10 10.11227195 10.45627049 12.94152152 11 16 C10.34 16 9.68 16 9 16 C8.34 13.69 7.68 11.38 7 9 C5.35 9 3.7 9 2 9 C2 11.31 2 13.62 2 16 C1.34 16 0.68 16 0 16 C0 10.72 0 5.44 0 0 Z " fill="#515151" transform="translate(283,341)"/>
<path d="M0 0 C3.63 0 7.26 0 11 0 C11 0.99 11 1.98 11 3 C8.36 3 5.72 3 3 3 C3 4.32 3 5.64 3 7 C5.31 7 7.62 7 10 7 C10 7.99 10 8.98 10 10 C7.69 10 5.38 10 3 10 C3 11.65 3 13.3 3 15 C5.64 15 8.28 15 11 15 C11 15.66 11 16.32 11 17 C7.37 17 3.74 17 0 17 C0 11.39 0 5.78 0 0 Z " fill="#646464" transform="translate(193,340)"/>
<path d="M0 0 C1.859375 0.1328125 1.859375 0.1328125 4 1 C5.265625 3.6171875 5.265625 3.6171875 6.25 6.875 C6.58515625 7.94492187 6.9203125 9.01484375 7.265625 10.1171875 C8 13 8 13 8 16 C7.34 16 6.68 16 6 16 C5.67 15.01 5.34 14.02 5 13 C2.69 12.67 0.38 12.34 -2 12 C-2.33 13.32 -2.66 14.64 -3 16 C-3.66 16 -4.32 16 -5 16 C-4.49228528 10.03435204 -2.61407872 5.36190101 0 0 Z " fill="#242424" transform="translate(224,341)"/>
<path d="M0 0 C6.93359375 -0.09765625 6.93359375 -0.09765625 9 0 C10 1 10 1 10.125 3.9375 C10 7 10 7 9 9 C9.60760482 11.3494053 10.27129528 13.68529088 11 16 C10.34 16 9.68 16 9 16 C8.34 13.69 7.68 11.38 7 9 C5.02 9 3.04 9 1 9 C1 11.31 1 13.62 1 16 C0.67 16 0.34 16 0 16 C0 10.72 0 5.44 0 0 Z " fill="#1C1C1C" transform="translate(165,341)"/>
<path d="M0 0 C4.59195094 1.14798774 4.87820524 1.73528573 7.25 5.5625 C8.03117188 6.80193359 8.03117188 6.80193359 8.828125 8.06640625 C9.21484375 8.70449219 9.6015625 9.34257812 10 10 C10.33 6.7 10.66 3.4 11 0 C11.66 0 12.32 0 13 0 C13 5.28 13 10.56 13 16 C7.33251525 13.16625763 6.08828336 9.47468414 3 4 C2.67 7.96 2.34 11.92 2 16 C1.34 16 0.68 16 0 16 C0 10.72 0 5.44 0 0 Z " fill="#313131" transform="translate(235,341)"/>
<path d="M0 0 C3.3 0 6.6 0 10 0 C10 0.33 10 0.66 10 1 C7.36 1 4.72 1 2 1 C2 2.98 2 4.96 2 7 C4.31 7 6.62 7 9 7 C9 7.33 9 7.66 9 8 C6.69 8 4.38 8 2 8 C2 9.98 2 11.96 2 14 C4.64 14 7.28 14 10 14 C10 14.66 10 15.32 10 16 C6.7 16 3.4 16 0 16 C0 10.72 0 5.44 0 0 Z " fill="#222222" transform="translate(180,341)"/>
<path d="M0 0 C3.3 0 6.6 0 10 0 C10 0.33 10 0.66 10 1 C7.36 1 4.72 1 2 1 C2 2.98 2 4.96 2 7 C4.31 7 6.62 7 9 7 C9 7.33 9 7.66 9 8 C6.69 8 4.38 8 2 8 C2 9.98 2 11.96 2 14 C4.64 14 7.28 14 10 14 C10 14.66 10 15.32 10 16 C6.7 16 3.4 16 0 16 C0 10.72 0 5.44 0 0 Z " fill="#060606" transform="translate(269,341)"/>
<path d="M0 0 C0.33 1.32 0.66 2.64 1 4 C0.01 3.34 -0.98 2.68 -2 2 C-4.54230847 1.58320703 -4.54230847 1.58320703 -7 2 C-9.30441554 5.45662331 -9.25860135 6.94857881 -9 11 C-8.67 11.66 -8.34 12.32 -8 13 C-5.67843403 13.40729228 -3.3431213 13.74438677 -1 14 C-0.67 13.01 -0.34 12.02 0 11 C0.33 11.99 0.66 12.98 1 14 C-1 16 -1 16 -4.375 16.4375 C-8 16 -8 16 -10.4375 13.875 C-12.25258108 10.53525081 -12.47835632 8.74712451 -12 5 C-9.68494102 -1.11837017 -5.82251174 -0.09391148 0 0 Z " fill="#242424" transform="translate(264,341)"/>
<path d="M0 0 C1.65 0 3.3 0 5 0 C3.68 0.33 2.36 0.66 1 1 C1 2.98 1 4.96 1 7 C3.31 7 5.62 7 8 7 C11 12.625 11 12.625 11 16 C10.34 16 9.68 16 9 16 C8.34 13.69 7.68 11.38 7 9 C5.35 9 3.7 9 2 9 C2 11.31 2 13.62 2 16 C1.34 16 0.68 16 0 16 C0 10.72 0 5.44 0 0 Z " fill="#202020" transform="translate(283,341)"/>
<path d="M0 0 C3.3 0 6.6 0 10 0 C10 0.33 10 0.66 10 1 C7.36 1 4.72 1 2 1 C2 2.98 2 4.96 2 7 C4.31 7 6.62 7 9 7 C9 7.66 9 8.32 9 9 C6.69 9 4.38 9 2 9 C2 11.31 2 13.62 2 16 C1.34 16 0.68 16 0 16 C0 10.72 0 5.44 0 0 Z " fill="#323232" transform="translate(151,341)"/>
<path d="M0 0 C1.98 0 3.96 0 6 0 C6.38218767 1.65614657 6.71395102 3.32457024 7 5 C6 6 6 6 2.9375 6.0625 C1.4834375 6.0315625 1.4834375 6.0315625 0 6 C0 4.02 0 2.04 0 0 Z " fill="#E1E1E1" transform="translate(166,342)"/>
<path d="M0 0 C0.66 0 1.32 0 2 0 C2 5.28 2 10.56 2 16 C1.01 15.67 0.02 15.34 -1 15 C-0.67 10.05 -0.34 5.1 0 0 Z " fill="#131313" transform="translate(246,341)"/>
<path d="M0 0 C0.33 0 0.66 0 1 0 C1 1.98 1 3.96 1 6 C3.64 6 6.28 6 9 6 C9 6.66 9 7.32 9 8 C5.7 8 2.4 8 -1 8 C-1.125 2.25 -1.125 2.25 0 0 Z " fill="#252525" transform="translate(270,349)"/>
<path d="M0 0 C1.98 0 3.96 0 6 0 C6 1.65 6 3.3 6 5 C4.02 5 2.04 5 0 5 C0 3.35 0 1.7 0 0 Z " fill="#F9F9F9" transform="translate(285,343)"/>
<path d="M0 0 C2.5654594 2.5654594 2.54046087 4.47686668 3 8 C1.35 8 -0.3 8 -2 8 C-1.47731534 5.23723823 -0.89130413 2.6739124 0 0 Z " fill="#E7E7E7" transform="translate(225,343)"/>
<path d="M0 0 C0.33 0.66 0.66 1.32 1 2 C3.64 2 6.28 2 9 2 C9 2.33 9 2.66 9 3 C6.69 3 4.38 3 2 3 C1.67 4.32 1.34 5.64 1 7 C0.34 7 -0.32 7 -1 7 C-0.67 4.69 -0.34 2.38 0 0 Z " fill="#555555" transform="translate(220,350)"/>
</svg>
